<svg id="Layer_1" data-name="Layer 1" xmlns="http://www.w3.org/2000/svg" xmlns:xlink="http://www.w3.org/1999/xlink" viewBox="0 0 325.51 145.55">
  <defs>
    <style>
      .cls-1 {
        fill: #fff;
      }

      .cls-2 {
        fill: url(#linear-gradient);
      }
    </style>
    <linearGradient id="linear-gradient" x1="-270.05" y1="342.24" x2="-249.12" y2="321.3" gradientTransform="matrix(2.63, 0, 0, -2.63, 844.96, 893.64)" gradientUnits="userSpaceOnUse">
      <stop offset="0" stop-color="#396"/>
      <stop offset="1" stop-color="#004f32"/>
    </linearGradient>
  </defs>
  <title>Aston_Martin</title>
  <g id="_0" data-name=" 0">
    <g id="_42253856" data-name=" 42253856">
      <path id="_170829896" data-name=" 170829896" d="M162.75,59.9a1.56,1.56,0,0,0-1,.45L151.16,70.43c-3.89,3.74-9,2.18-9.59,2l-45-12.28c-8.59-2.6-10.3-5.39-11.62-8.79a4.59,4.59,0,0,0-2.63-2.66l-55-16.16c-2.25-.69-3.48-1.33-4.37-3l-3-5.33a2.66,2.66,0,0,0-2-1.42c-4.16-.56-5.38-2.88-5.9-3.87L9.54,14.56a2.69,2.69,0,0,0-1.9-1.46c-2.36-.15-3.49-.74-4.47-2.35l-2.41-4A4.54,4.54,0,0,1,.53,2.07,4.73,4.73,0,0,1,4.62,0H136.23a12.15,12.15,0,0,1,9,3.36,12.43,12.43,0,0,1,3.27,6.18c0,.06.16.58,1.29.58h26c1.13,0,1.28-.52,1.29-.58a12.43,12.43,0,0,1,3.27-6.18,12.16,12.16,0,0,1,9-3.36h131.6A4.73,4.73,0,0,1,325,2.07a4.54,4.54,0,0,1-.23,4.67l-2.41,4c-1,1.61-2.11,2.2-4.47,2.35a2.69,2.69,0,0,0-1.9,1.46l-2.46,4.31c-.51,1-1.73,3.31-5.9,3.87a2.66,2.66,0,0,0-1.95,1.42l-3,5.33c-.89,1.71-2.12,2.35-4.37,3l-55,16.16a4.59,4.59,0,0,0-2.63,2.66c-1.32,3.4-3,6.19-11.62,8.79l-45,12.28c-.55.19-5.7,1.75-9.59-2L163.79,60.35a1.56,1.56,0,0,0-1-.45Z" transform="translate(0 0)"/>
      <path id="_170829840" data-name=" 170829840" class="cls-1" d="M179.44,10.07a9.91,9.91,0,0,1,2.61-5,9.79,9.79,0,0,1,7.23-2.65h60.46A12.52,12.52,0,0,0,246.5,6.1c-.7,1.32-1.58,2.85-2.62,4.57H179.23a2.62,2.62,0,0,0,.21-.6Zm143.15-4.5-2.36,3.92c-.44.73-.71,1.06-2.53,1.17H246.11c.8-1.35,1.49-2.58,2.06-3.66,0,0,2.56-4.55,7.06-4.55h65.59a2.29,2.29,0,0,1,2.05.89,1.26,1.26,0,0,1,.2.71,3.23,3.23,0,0,1-.48,1.52Zm-8.75,7.78-2.5,4.39A4.07,4.07,0,0,1,308.8,20a18.79,18.79,0,0,1-5.14,0l-60.9-4q1.19-1.75,2.19-3.36h69.41a5.87,5.87,0,0,0-.52.78ZM303.48,23s-2.39,4.22-2.89,5.1c-.13.17-.81.91-3,.62l-58.36-7.83c.8-1.05,1.56-2.08,2.27-3.09l62,4.12.73.07a4.72,4.72,0,0,0-.69,1ZM283.41,34.34c-2.19.59-6.49-.07-8-.38l-40.1-8.25q1.32-1.55,2.52-3.06l58.6,7.86-13,3.83Zm-19.87,5.84c-2.82.75-6.5-.47-6.54-.48H257L230.11,31.4c1.33-1.35,2.59-2.69,3.78-4L275,35.82c.09,0,.94.19,2.12.35l-13.62,4Zm-21,6.15c-1.9.52-4.71-.58-5.65-1l-14.55-6.81q3.31-2.73,6.21-5.55l27.83,8.59a12.9,12.9,0,0,0,1.34.36l-15.18,4.46Zm-4.3,4.2c-.81,2.08-1.65,4.22-7.36,6.37-2.36.73-5.16-1.35-5.19-1.38l-13.6-9.73a94.69,94.69,0,0,0,8.59-6L236.09,47a14.1,14.1,0,0,0,3.59,1.2,8.14,8.14,0,0,0-1.41,2.34Zm-21.51,10.4-2.14.58c-1.8.43-4-1.35-4.71-2.1L202,51.17a90,90,0,0,0,8.33-4.31l14.25,10.19a10.72,10.72,0,0,0,2.07,1.18l-9.9,2.7Zm-18.84,5.14c-1.51.24-3.25-2.23-3.76-3.15l-4.3-7.28A87.07,87.07,0,0,0,200.14,52l8.39,8.75a11.18,11.18,0,0,0,2.35,1.79l-13,3.54ZM183.65,70a3.39,3.39,0,0,1-2.6-.31,5.79,5.79,0,0,1-2.14-3.32l-2.19-7.91A93.92,93.92,0,0,0,188,56.17l4.55,7.7a11.47,11.47,0,0,0,2.46,3L183.65,70Zm-9.25-2.87-8.17-7.79c2.9-.1,5.77-.31,8.58-.64l2.24,8.09a8.61,8.61,0,0,0,1.76,3.46c-1.72-.49-2.24-1-4.41-3.12Zm-10.69-9.64V32.8h3.93l6.65,24A99.34,99.34,0,0,1,163.71,57.45Zm-12.5-.65,6.66-24h3.93V57.45a99.36,99.36,0,0,1-10.59-.65Zm-1.74,11.85a6.28,6.28,0,0,1-2.77,1.56,8.41,8.41,0,0,0,1.75-3.47l2.25-8.07c2.81.32,5.67.54,8.57.63l-9.8,9.35Zm-2.88-2.33a5.74,5.74,0,0,1-2.13,3.33,3.4,3.4,0,0,1-2.6.31l-11.33-3.09a11,11,0,0,0,2.48-3s1.92-3.24,4.53-7.67a94.32,94.32,0,0,0,11.24,2.25l-2.19,7.9Zm-19-.25-13-3.54a11.36,11.36,0,0,0,2.35-1.8s3.7-3.87,8.38-8.74a89.57,89.57,0,0,0,10.28,3.65l-4.28,7.26c-.52.94-2.27,3.41-3.77,3.17Zm-16.71-4.56-12-3.28A11,11,0,0,0,100.93,57l14.24-10.18a92.47,92.47,0,0,0,8.33,4.31l-7.9,8.24c-.71.75-2.91,2.53-4.72,2.1ZM94.58,56.9c-5.68-2.15-6.53-4.28-7.34-6.36a8.05,8.05,0,0,0-1.42-2.35A14.84,14.84,0,0,0,89.44,47l15.36-7.19a93.18,93.18,0,0,0,8.58,6L99.8,55.5S96.94,57.64,94.58,56.9ZM82.94,46.33,67.76,41.87a12.69,12.69,0,0,0,1.36-.37l27.81-8.58c1.93,1.87,4,3.73,6.21,5.55l-14.53,6.8c-1,.48-3.77,1.58-5.67,1.06ZM62,40.18l-13.64-4c1.19-.16,2-.34,2.13-.35l41.15-8.46q1.78,2,3.78,4L68.53,39.69c-.06,0-3.73,1.24-6.55.49ZM42.11,34.35l-13-3.83,58.61-7.87c.8,1,1.64,2,2.51,3.06L50.08,34c-1.49.31-5.77,1-8,.39ZM28,28.74c-2.21.29-2.91-.44-3-.61L22,23a5.29,5.29,0,0,0-.68-1c.37,0,62.73-4.19,62.73-4.19.71,1,1.46,2,2.26,3.09L28,28.74ZM16.71,20a4.09,4.09,0,0,1-2.54-2.22c-1-1.74-2.37-4.34-3-5.17H80.57c.66,1.07,1.39,2.19,2.18,3.36L21.84,20a18.71,18.71,0,0,1-5.13,0ZM7.82,10.67c-1.67-.12-2-.32-2.55-1.19,0,0-2.18-3.63-2.36-3.91a3.19,3.19,0,0,1-.47-1.52c0-.89.65-1.58,2.25-1.6H70.28C74.72,2.46,77.34,7,77.34,7c.58,1.08,1.26,2.31,2.07,3.66Zm128.4-8.22a9.8,9.8,0,0,1,7.24,2.65,10.07,10.07,0,0,1,2.61,5,3.93,3.93,0,0,0,.21.6H81.63C80.64,9.05,79,6.1,79,6.1a12.52,12.52,0,0,0-3.24-3.65Zm93.62,12.63V12.57h12.85q-1,1.54-2.13,3.21l-10.72-.7Zm0,4.58V17.05l9.39.62c-.7,1-1.44,1.95-2.21,2.95l-7.18-1Zm0,4.93v-3l5.81.78c-.78,1-1.6,1.94-2.46,2.92l-3.35-.69Zm0,1.94,1.9.39c-.61.67-1.25,1.36-1.9,2ZM210.26,32.8H226c-1.6,1.59-5.38,4.67-5.5,4.77L210.26,32.8ZM194,32.8h11.79l13,6.09a91.64,91.64,0,0,1-8.34,5.69L194,32.8Zm-9.59,0h6.32l17.93,12.84a86.56,86.56,0,0,1-8,4.07L184.39,32.8Zm-8,0h5.37l17,17.71a86.54,86.54,0,0,1-9.87,3.43L176.37,32.8Zm-2.21,0L187,54.46a92.61,92.61,0,0,1-10.76,2.11L169.62,32.8Zm-22.81,0h4.54L149.3,56.57a92.44,92.44,0,0,1-10.75-2.11l12.8-21.66Zm-7.59,0h5.37L136.65,53.94a85.45,85.45,0,0,1-9.88-3.43l17-17.71Zm-9,0h6.32L124.91,49.71a86.56,86.56,0,0,1-8-4.07L134.8,32.8Zm-29.74,4.77c-.15-.12-3.91-3.28-5.5-4.77h15.68l-10.18,4.77Zm14.68-4.77h11.79L115.07,44.58a90.13,90.13,0,0,1-8.33-5.69l13-6.09ZM95.65,26.53v2.4c-.64-.67-1.27-1.34-1.88-2Zm0-5v3l-3.34.69c-.85-1-1.67-2-2.44-2.92l5.78-.78Zm0-4.53v2.61l-7.16,1c-.77-1-1.51-2-2.2-2.95l9.36-.62Zm0-2-10.7.7q-1.15-1.66-2.13-3.21H95.65v2.51Z" transform="translate(0 0)"/>
      <path id="_170831360" data-name=" 170831360" class="cls-2" d="M97.58,30.9l0,0V12.58H227.94v18.3a0,0,0,0,1,0,0Z" transform="translate(0 0)"/>
      <path id="_171137640" data-name=" 171137640" class="cls-1" d="M106.22,15.5h-.54L100.1,28h1.51l0-.07c.45-1.52,1-3,1.59-4.37l.12-.3h4.31c.58,1.33,1.18,2.85,1.81,4.67l0,.07h2.08L106.22,15.5Zm-2.45,6.78c.11-.27,1.58-3.7,1.75-4.1l1.78,4.1Z" transform="translate(0 0)"/>
      <path id="_171199256" data-name=" 171199256" class="cls-1" d="M112.18,27.08l0,.05a4.61,4.61,0,0,0,2.94,1.05,4.1,4.1,0,0,0,4.44-4.11c0-2-1.51-2.59-3-3.18-1.31-.51-2.55-1-2.55-2.48a2,2,0,0,1,2.11-1.93,2.12,2.12,0,0,1,2.07,1.45l0,.07h.33l.52-1.58-.06-.05a4,4,0,0,0-2.58-.87c-2.43,0-4,1.36-4,3.48s1.6,2.77,3,3.33,2.48,1,2.48,2.45a2.37,2.37,0,0,1-2.33,2.45,3,3,0,0,1-2.75-1.77l0-.05h-.33l-.37,1.69Z" transform="translate(0 0)"/>
      <path id="_171234112" data-name=" 171234112" class="cls-1" d="M129.45,15.76h-9.16V17h.11a34.36,34.36,0,0,1,3.73-.21V28h1.76V16.83a30.61,30.61,0,0,1,3.55.2l.12,0V15.76Z" transform="translate(0 0)"/>
      <path id="_171242176" data-name=" 171242176" class="cls-1" d="M135.77,15.5c-3.89,0-6.61,2.62-6.61,6.37s2.64,6.31,6.57,6.31,6.8-2.64,6.8-6.58c0-4.21-3.4-6.1-6.76-6.1ZM139,26a4.3,4.3,0,0,1-3.24,1.38c-2.85,0-4.69-2.09-4.69-5.31,0-3.57,1.86-5.78,4.85-5.78A4.56,4.56,0,0,1,139.5,18a5.7,5.7,0,0,1,1.09,3.8c0,.08,0,.16,0,.25A6.23,6.23,0,0,1,139,26Z" transform="translate(0 0)"/>
      <path id="_171242152" data-name=" 171242152" class="cls-1" d="M154.74,15.76h-1.09v9h0l-8.34-9h-.85V28h1.2V18.52h0l7.54,8.35.94,1.1h.7V15.76Z" transform="translate(0 0)"/>
      <path id="_171249360" data-name=" 171249360" class="cls-1" d="M174.46,15.76H174l-2.95,5.36L169,24.84c-1.82-3-3.46-6.25-4.86-9l0-.06h-.62v.1c-.17,1.8-1.22,9.15-1.68,12l0,.12h1.48v-.11c0-1.72.31-4.28.63-7,0,0,.14-1.2.2-1.68.2.4,2.5,4.76,3.38,6.55l1,2.05h.33l0-.07c1-2.35,2.46-5,4.44-8.55.28,2.1.65,6.3.85,8.71V28H176l0-.12c-.42-3-.88-6.88-1.42-12v-.1Z" transform="translate(0 0)"/>
      <path id="_171205240" data-name=" 171205240" class="cls-1" d="M182.84,15.5h-.55L176.71,28h1.52l0-.07a46.52,46.52,0,0,1,1.61-4.4s.07-.17.1-.27h4.31c.59,1.36,1.2,2.92,1.81,4.67l0,.07h2.09L182.84,15.5Zm-2.45,6.78c.11-.27,1.57-3.7,1.75-4.1l1.78,4.1Z" transform="translate(0 0)"/>
      <path id="_171209080" data-name=" 171209080" class="cls-1" d="M193.56,21.94c2.2-.45,3.52-1.7,3.52-3.4,0-1.86-1.31-2.78-4-2.78h-3.82V28H191V22.12h.51l1.37,1.61S195,26.41,195,26.41L196.09,28h2.3l-4.83-6Zm-2.56-.7V16.63a14.37,14.37,0,0,1,2.46,0,2,2,0,0,1,1.84,2.11,2.42,2.42,0,0,1-2.17,2.39A8.57,8.57,0,0,1,191,21.24Z" transform="translate(0 0)"/>
      <path id="_171209056" data-name=" 171209056" class="cls-1" d="M207.24,15.76h-9.17V17h.12a34.15,34.15,0,0,1,3.72-.21V28h1.77V16.83a30.87,30.87,0,0,1,3.55.2l.12,0V15.76Z" transform="translate(0 0)"/>
      <polygon id="_171221600" data-name=" 171221600" class="cls-1" points="208.8 27.97 210.46 27.97 210.46 15.76 208.8 15.76 208.8 27.97"/>
      <path id="_171224520" data-name=" 171224520" class="cls-1" d="M222.25,15.76v9h0l-8.34-9h-.85V28h1.2V18.52h0l7.56,8.35.94,1.1h.68V15.76Z" transform="translate(0 0)"/>
      <path id="_171224496" data-name=" 171224496" d="M62.71,145.13c-.66,0-1.22-.11-1.82-.11s-1.25.07-1.85.11c-1-2.9-2.26-6.24-3.66-9.41H46.52c-1.22,3.06-2.48,6.13-3.46,9.41-.49,0-.87-.11-1.29-.11a10.83,10.83,0,0,0-1.22.11l10.89-24.36h.8l10.47,24.36Zm221,0h-1.05c-.38-.48-1.08-1.32-1.81-2.13l-15.08-16.66h-.35v18.79a8.91,8.91,0,0,0-1-.11,7.37,7.37,0,0,0-1,.11V121.29h1.36l16.57,18h.36v-18a9.26,9.26,0,0,0,1,.1c.31,0,.63-.07,1-.1v23.84Zm-28.26-23.84c.49,0,1,.1,1.54.1s1-.07,1.53-.1v23.84c-.55,0-1-.11-1.53-.11s-1,.07-1.54.11ZM244.29,145.2c-.56,0-1-.11-1.54-.11s-1,.07-1.53.11V123a65.38,65.38,0,0,0-7.65.42,9.42,9.42,0,0,0,.11-1,9.86,9.86,0,0,0-.11-1h18c0,.38-.1.69-.1,1s.07.69.1,1a60.62,60.62,0,0,0-7.29-.42V145.2ZM216,121.29h7.4c5.37,0,7.75,1.77,7.75,5.3,0,4-3.63,6-7.16,6.62l7.19,9.1,1.68,1.95.66.87c-.73,0-1.36-.11-2-.11s-1.35.07-2,.11c-.77-1.08-1.46-2.06-2.2-3l-4.11-5.33-2.8-3.27h-1.32v11.64c-.56,0-1.05-.11-1.54-.11s-1,.07-1.53.11V121.29Zm3.07,10.87a19.53,19.53,0,0,0,4.5-.17c2.56-.52,4.47-2.27,4.47-5a4.08,4.08,0,0,0-3.84-4.4,31.25,31.25,0,0,0-5.13,0v9.58Zm-5.49,13c-.67,0-1.22-.11-1.82-.11s-1.26.07-1.84.11c-1-2.9-2.28-6.24-3.67-9.41h-8.86c-1.23,3.06-2.49,6.13-3.46,9.41-.49,0-.87-.11-1.29-.11a10.83,10.83,0,0,0-1.22.11l10.88-24.36h.81l10.47,24.36Zm-11.73-19.8-3.8,8.92h7.67l-3.87-8.92Zm-14.86-4c.91,8.6,1.89,17.18,2.83,23.84-.63,0-1.12-.11-1.64-.11s-1.12.07-1.64.11c-.59-7-1.3-14.53-1.79-18-4.05,7.21-7.05,12.78-9.14,17.6h-.38l-1.92-3.95c-2.24-4.59-4.68-9.12-7.05-13.65-.77,6.79-1.71,13.69-1.71,18-.45,0-.84-.11-1.22-.11a12.56,12.56,0,0,0-1.26.11c.9-5.61,3-20.18,3.35-23.84h.91c2.79,5.55,6.14,12.09,9.87,18.26,3.32-6,6.53-12,10.06-18.26Zm-39.33,23.84h-1.05c-.38-.48-1.08-1.32-1.81-2.13l-15.08-16.66h-.35v18.79a9.18,9.18,0,0,0-1-.11,7.53,7.53,0,0,0-1,.11V121.29h1.37l16.57,18h.36v-18a9.34,9.34,0,0,0,1,.1c.31,0,.63-.07,1-.1v23.84ZM97.62,133.21c0-7.64,5.69-12.44,12.92-12.44,6.56,0,13.22,3.55,13.22,11.91,0,7.77-5.51,12.87-13.29,12.87s-12.85-4.88-12.85-12.34Zm20.53-7.91a9.24,9.24,0,0,0-7.27-3.39c-6.13,0-9.83,4.64-9.83,11.71s4.32,10.77,9.52,10.77c7.37,0,10-7.59,9.77-11.43,0-2.88-.38-5.33-2.19-7.66ZM90.74,145.2c-.56,0-1-.11-1.54-.11s-1,.07-1.53.11V123a65.1,65.1,0,0,0-7.65.42,9.42,9.42,0,0,0,.11-1,9.86,9.86,0,0,0-.11-1H98a9.78,9.78,0,0,0-.1,1,9.37,9.37,0,0,0,.1,1,60.62,60.62,0,0,0-7.29-.42V145.2Zm-25.58-4.78c1.35,2.23,2.92,3.63,5.65,3.63A4.92,4.92,0,0,0,75.66,139c0-6.48-10.93-3.62-10.93-11.5,0-4.5,3.56-6.69,7.75-6.69a7.85,7.85,0,0,1,5,1.67,19.15,19.15,0,0,0-.94,2.86h-.35a4.46,4.46,0,0,0-4.32-3,4.13,4.13,0,0,0-4.4,4.08c0,6.42,11,3.84,11,11.26,0,5-3.88,8-8.62,8-1.71,0-4.5-.73-5.69-2a16,16,0,0,0,.66-3.11ZM51,125.33l-3.8,8.92h7.68L51,125.33Z" transform="translate(0 0)"/>
    </g>
  </g>
</svg>
