<svg id="Breaks" xmlns="http://www.w3.org/2000/svg" viewBox="0 0 326 285.06">
  <title>Breaks</title>
  <g id="breaks-2" data-name="breaks">
    <path id="wheel" d="M124.71,203.29c12.24-3.27,24-6.37,35.79-9.59a27.3,27.3,0,0,0,6.69-2.65c5.16-3.09,6.91-7.18,5.45-13.05-7.19-29.07,1.74-52.9,23.41-72.64,6.4-5.84,7-11.16,1.64-18.12-4.89-6.34-10.09-12.43-15.16-18.63-.74-.91-1.47-1.84-2.21-2.75,42.83-33.92,113.64-41,168.4-1.52A142.48,142.48,0,0,1,395.1,239.27c-28.06,61.41-96.69,95.1-162.37,79.46-33.23-7.92-60.38-25.56-81.13-52.74A137.46,137.46,0,0,1,124.71,203.29ZM341.45,180c0-42.24-34.08-76-76.67-76-41.43,0-75.42,34.19-75.34,75.82a75.62,75.62,0,0,0,76.07,76C307.37,255.79,341.49,221.75,341.45,180Z" transform="translate(-82.02 -37.48)"/>
    <path id="block" d="M82,162c.88-50.52,17.67-87.57,51.07-117,8.79-7.74,15.72-7.19,23.2,1.75q16,19.11,31.79,38.4a28.52,28.52,0,0,1,4.21,7.4c1.7,4.24.19,7.58-2.93,11-6.29,6.87-12.77,13.77-17.82,21.53-9.56,14.68-9.73,31-6.16,47.66,1.79,8.34-1,13.35-9.37,15.69q-26.16,7.31-52.44,14.13c-8,2.09-15.1-2.09-16.7-10.34C84.55,180.27,83,168.17,82,162Z" transform="translate(-82.02 -37.48)"/>
    <path id="detail" d="M332.87,180c.12,36.79-29.94,67.22-66.56,67.37-38.09.15-68.43-29.65-68.51-67.3A67.54,67.54,0,1,1,332.87,180ZM232,179.56a33.41,33.41,0,1,0,66.81.78c.37-18-14.61-33.55-32.61-33.78C247.28,146.31,232.29,160.78,232,179.56Zm-17.76-5.92a9.15,9.15,0,0,0-9.32,9.07,9,9,0,0,0,9,9.33,9.21,9.21,0,1,0,.3-18.4ZM265,240a9.5,9.5,0,0,0,9.42-9.13,9.7,9.7,0,0,0-9.57-9.52,9.43,9.43,0,0,0-9.1,9.42A9.33,9.33,0,0,0,265,240Zm9.86-110.89A9.26,9.26,0,0,0,265.6,120a9.1,9.1,0,0,0-9.12,9.65,9,9,0,0,0,9.43,8.86A9.18,9.18,0,0,0,274.89,129.09Zm32.36,47.84a9.21,9.21,0,0,0,18.42.5,9.22,9.22,0,1,0-18.42-.5Z" transform="translate(-82.02 -37.48)"/>
  </g>
</svg>
