<?xml version="1.0" encoding="utf-8"?>
<!-- Generator: Adobe Illustrator 22.0.1, SVG Export Plug-In . SVG Version: 6.00 Build 0)  -->
<svg version="1.1" id="Breaks" xmlns="http://www.w3.org/2000/svg" xmlns:xlink="http://www.w3.org/1999/xlink" x="0px" y="0px"
	 viewBox="0 0 326 285.1" style="enable-background:new 0 0 326 285.1;" xml:space="preserve">
<style type="text/css">
	.st0{opacity:0.5;}
	.st1{fill:#004F32;}
</style>
<title>Breaks</title>
<g id="breaks-2" class="st0">
	<path id="wheel" class="st1" d="M42.7,165.8c12.2-3.3,24-6.4,35.8-9.6c2.3-0.6,4.6-1.5,6.7-2.6c5.2-3.1,6.9-7.2,5.4-13.1
		c-7.2-29.1,1.7-52.9,23.4-72.6c6.4-5.8,7-11.2,1.6-18.1c-4.9-6.3-10.1-12.4-15.2-18.6c-0.7-0.9-1.5-1.8-2.2-2.8
		c42.8-33.9,113.6-41,168.4-1.5c55.3,39.7,74.7,113,46.4,174.9c-28.1,61.4-96.7,95.1-162.4,79.5c-33.2-7.9-60.4-25.6-81.1-52.7
		C55.5,210.2,46.2,188.6,42.7,165.8z M259.4,142.5c0-42.2-34.1-76-76.7-76c-41.4,0-75.4,34.2-75.3,75.8c-0.2,41.8,33.5,75.8,75.2,76
		c0.3,0,0.6,0,0.8,0C225.4,218.3,259.5,184.3,259.4,142.5z"/>
	<path id="block" class="st1" d="M0,124.5C0.9,74,17.7,37,51.1,7.5c8.8-7.7,15.7-7.2,23.2,1.8C84.9,22,95.5,34.8,106,47.7
		c1.8,2.2,3.2,4.7,4.2,7.4c1.7,4.2,0.2,7.6-2.9,11c-6.3,6.9-12.8,13.8-17.8,21.5c-9.6,14.7-9.7,31-6.2,47.7c1.8,8.3-1,13.4-9.4,15.7
		c-17.4,4.9-34.9,9.6-52.4,14.1c-8,2.1-15.1-2.1-16.7-10.3C2.5,142.8,1,130.7,0,124.5z"/>
	<path id="detail" class="st1" d="M250.9,142.5c0.1,36.8-29.9,67.2-66.6,67.4c-38.1,0.1-68.4-29.6-68.5-67.3
		c-0.5-37.3,29.4-67.9,66.7-68.4c37.3-0.5,67.9,29.4,68.4,66.7C250.9,141.4,250.9,142,250.9,142.5z M150,142.1
		c-0.5,18.4,14.1,33.8,32.6,34.2c18.4,0.5,33.8-14.1,34.2-32.6c0-0.3,0-0.6,0-0.9c0.4-18-14.6-33.6-32.6-33.8
		C165.3,108.8,150.3,123.3,150,142.1z M132.2,136.2c-5.1-0.1-9.2,3.9-9.3,9c0,0,0,0.1,0,0.1c-0.2,5,3.7,9.1,8.7,9.3
		c0.1,0,0.2,0,0.3,0c5.1,0.3,9.4-3.6,9.7-8.6c0.3-5.1-3.6-9.4-8.6-9.7C132.7,136.2,132.5,136.2,132.2,136.2L132.2,136.2z M183,202.5
		c5.1,0,9.2-4.1,9.4-9.1c-0.1-5.2-4.3-9.5-9.6-9.5c-5.1,0.2-9.1,4.3-9.1,9.4C173.8,198.4,177.9,202.5,183,202.5z M192.8,91.6
		c-0.1-5.1-4.2-9.1-9.3-9.1c-5,0-9.1,4-9.1,9.1c0,0.2,0,0.4,0,0.6c0.1,5,4.2,8.9,9.1,8.9c0.1,0,0.2,0,0.3,0
		C189,100.9,193,96.7,192.8,91.6C192.9,91.6,192.9,91.6,192.8,91.6L192.8,91.6z M225.2,139.5c-0.1,5.1,3.9,9.3,9,9.5
		c5.1,0.1,9.3-3.9,9.5-9c0.3-5.1-3.5-9.5-8.6-9.8c-5.1-0.3-9.5,3.5-9.8,8.6C225.2,139,225.2,139.2,225.2,139.5z"/>
</g>
</svg>
