<?xml version="1.0" encoding="utf-8"?>
<!-- Generator: Adobe Illustrator 22.1.0, SVG Export Plug-In . SVG Version: 6.00 Build 0)  -->
<svg version="1.1" id="Engine" xmlns="http://www.w3.org/2000/svg" xmlns:xlink="http://www.w3.org/1999/xlink" x="0px" y="0px"
	 viewBox="0 0 326 250.8" style="enable-background:new 0 0 326 250.8;" xml:space="preserve">
<style type="text/css">
	.st0{opacity:0.51;}
	.st1{fill:#FFFFFF;}
</style>
<title>Engine</title>
<g id="engine-2" class="st0">
	<path id="body" class="st1" d="M50.1,177.1H37.4c0,7.6,0.1,15.1,0,22.6c-0.1,10.5-4.2,14.5-14.8,14.8c-2.2,0.1-4.4,0-6.6,0
		C4.4,214.3,0.1,210,0.1,198.4c0-27,0-54,0-80.9c0-11.8,4.1-15.9,15.8-15.9c2.7,0,5.4-0.1,8.1,0c8.5,0.4,13.1,4.8,13.3,13.3
		c0.2,7.6,0,15.1,0,23h12.8c0-7.4,0-14.9,0-22.4c0.1-9.8-0.2-14.8,14.8-14.8s25.6-3.4,33.9-14.9c13.7-19,31.9-23.3,55.2-23.3
		c41.4,0,71.1,0.5,106.6,0.5c12.6,0,16.3,3.6,16.3,16c0,19.3,0,38.7,0,58.6h13c0-6.9,0-14.1,0-21.3c0-11.7,4.1-15.8,16-15.9
		c2,0,3.9-0.1,5.9,0c8.7,0.2,14,4.9,14,13.5c0.2,28.7,0.1,57.4,0,86.1c0,2-0.3,3.9-0.9,5.8c-2.7,6.8-12.3,9.6-24.9,7.5
		c-6.8-1.1-11.2-5.9-11.4-13.2c-0.3-7.5-0.1-15.1-0.1-23h-13.3c0,22.2-6.5,23.1-16.1,32.7c-11.8,11.8-23.3,23.9-35.5,35.2
		c-3.5,3.2-8,5.1-12.8,5.4c-27.5,0.5-54.9,0.4-82.4,0c-4-0.2-7.9-1.8-11-4.4c-9.9-8.4-19.4-17.3-28.7-26.3
		c-3.6-3.7-8.5-5.6-13.6-5.4c-23.6,0.3-25-1.3-25-24.7V177.1z"/>
	<path id="part" class="st1" d="M163.2,49.7V37.4c-7.5,0-14.6,0.1-21.6,0c-10.1-0.2-14.1-4.2-14.4-14.3c-0.1-2.7-0.1-5.4,0-8.1
		c0.3-10.7,4.6-15,15.4-15c26.7,0,53.4,0,80.1,0c11.4,0,15.8,4.6,15.9,16.2c0,2.9,0.2,5.9,0,8.8c-0.6,7.8-4.9,12.1-12.7,12.3
		c-8.2,0.3-16.5,0.1-24.9,0.1c-0.3,4.7-0.5,8.3-0.7,12.3H163.2z"/>
</g>
</svg>
