<svg id="Engine" xmlns="http://www.w3.org/2000/svg" viewBox="0 0 326 250.81">
  <title>Engine</title>
  <g id="engine-2" data-name="engine">
    <path id="body" d="M132.1,231.67H119.4c0,7.58.07,15.09,0,22.59-.14,10.49-4.19,14.51-14.76,14.82-2.2.07-4.41.05-6.62,0-11.6-.17-15.92-4.47-15.94-16.1q-.07-40.47,0-80.92c0-11.83,4.13-15.86,15.85-15.87,2.7,0,5.4-.09,8.09,0,8.52.36,13.09,4.8,13.33,13.3.22,7.55,0,15.1,0,23H132.1c0-7.35,0-14.85,0-22.36.07-9.82-.2-14.78,14.8-14.78s25.55-3.39,33.9-14.95c13.72-19,31.85-23.27,55.24-23.27,41.42,0,71.08.51,106.63.53,12.6,0,16.26,3.61,16.28,16,0,19.34,0,38.69,0,58.62h13c0-6.87,0-14.11,0-21.34,0-11.73,4.1-15.76,16-15.88,2,0,3.92-.05,5.88,0,8.69.22,14,4.94,14.05,13.49.18,28.69.08,57.38,0,86.07a16.4,16.4,0,0,1-.94,5.75c-2.68,6.79-12.31,9.61-24.93,7.5-6.81-1.14-11.19-5.93-11.43-13.19-.25-7.54-.06-15.09-.06-23H357.25c0,22.18-6.53,23.11-16.14,32.72-11.79,11.79-23.31,23.87-35.5,35.22a21,21,0,0,1-12.79,5.39c-27.45.48-54.92.41-82.38.05a18.8,18.8,0,0,1-11-4.42c-9.88-8.41-19.38-17.3-28.72-26.33a17.78,17.78,0,0,0-13.63-5.4c-23.63.28-25-1.26-25-24.69Z" transform="translate(-82.02 -54.61)"/>
    <path id="part" d="M245.2,104.32V92c-7.53,0-14.58.09-21.62,0-10.06-.15-14.08-4.18-14.41-14.3-.08-2.69-.07-5.39,0-8.08.27-10.74,4.6-15,15.4-15q40,0,80.05,0c11.4,0,15.8,4.56,15.9,16.16,0,2.94.19,5.89,0,8.81-.63,7.79-4.89,12.08-12.73,12.34-8.24.27-16.5.06-24.89.06-.26,4.71-.45,8.32-.67,12.31Z" transform="translate(-82.02 -54.61)"/>
  </g>
</svg>
