<svg id="Head_Lights" data-name="Head Lights" xmlns="http://www.w3.org/2000/svg" viewBox="0 0 327.13 178">
  <title>Head_Lights</title>
  <g id="headLights">
    <path id="body" d="M189.09,267.19l-64.42-24.5A67.07,67.07,0,0,1,81.46,180h0a67.07,67.07,0,0,1,43.21-62.68l64.42-24.5c14-5.34,28.36,1.63,41.38,13.59,42.91,39.4,42.91,107.78,0,147.18C217.45,265.56,203.11,272.53,189.09,267.19Z" transform="translate(-81.46 -91.01)"/>
    <path id="ray" d="M376.78,93.47H255.13a7.27,7.27,0,0,0-5.79,11.62,134.5,134.5,0,0,1,9,13.89,7.24,7.24,0,0,0,6.31,3.7H385.94A7.26,7.26,0,0,0,392.31,112a141.42,141.42,0,0,0-9.61-15.44A7.29,7.29,0,0,0,376.78,93.47Z" transform="translate(-81.46 -91.01)"/>
    <path id="ray-2" data-name="ray" d="M398.15,140.12H277.75a7.24,7.24,0,0,0-7,9.14,139.11,139.11,0,0,1,3.11,14.07,7.22,7.22,0,0,0,7.14,6H400.89a7.26,7.26,0,0,0,7.2-8.2,143.35,143.35,0,0,0-2.9-15.5A7.23,7.23,0,0,0,398.15,140.12Z" transform="translate(-81.46 -91.01)"/>
    <path id="ray-3" data-name="ray" d="M401.05,186.76H283a7.49,7.49,0,0,0-7.5,7q-.39,6.75-1.42,13.45a7.53,7.53,0,0,0,7.42,8.71H398.84a7.5,7.5,0,0,0,7.35-5.91,143.88,143.88,0,0,0,2.35-15A7.53,7.53,0,0,0,401.05,186.76Z" transform="translate(-81.46 -91.01)"/>
    <path id="ray-4" data-name="ray" d="M387.58,234.86h-116a7,7,0,0,0-6.49,4.34A135.54,135.54,0,0,1,258,253.57a7,7,0,0,0,6.12,10.49H378.63a7.06,7.06,0,0,0,5.83-3.08,141.09,141.09,0,0,0,9.39-15.88A7,7,0,0,0,387.58,234.86Z" transform="translate(-81.46 -91.01)"/>
  </g>
</svg>
