<?xml version="1.0" encoding="utf-8"?>
<!-- Generator: Adobe Illustrator 22.1.0, SVG Export Plug-In . SVG Version: 6.00 Build 0)  -->
<svg version="1.1" id="Head_Lights" xmlns="http://www.w3.org/2000/svg" xmlns:xlink="http://www.w3.org/1999/xlink" x="0px"
	 y="0px" viewBox="0 0 327.1 178" style="enable-background:new 0 0 327.1 178;" xml:space="preserve">
<style type="text/css">
	.st0{opacity:0.5;}
	.st1{fill:#FFFFFF;}
</style>
<title>Head_Lights</title>
<g id="headLights" class="st0">
	<path id="body" class="st1" d="M107.6,176.2l-64.4-24.5C17.2,141.8,0,116.8,0,89l0,0c0-27.8,17.2-52.8,43.2-62.7l64.4-24.5
		c14-5.3,28.4,1.6,41.4,13.6c42.9,39.4,42.9,107.8,0,147.2C136,174.5,121.7,181.5,107.6,176.2z"/>
	<path id="ray" class="st1" d="M295.3,2.5H173.7c-4,0-7.3,3.3-7.2,7.3c0,1.6,0.5,3.1,1.4,4.3c3.3,4.4,6.3,9.1,9,13.9
		c1.3,2.3,3.7,3.7,6.3,3.7h121.3c4,0,7.2-3.3,7.2-7.3c0-1.2-0.3-2.3-0.9-3.4c-2.9-5.3-6.1-10.5-9.6-15.4
		C299.9,3.6,297.7,2.5,295.3,2.5z"/>
	<path id="ray-2" class="st1" d="M316.7,49.1H196.3c-4,0-7.2,3.2-7.3,7.2c0,0.6,0.1,1.3,0.3,1.9c1.3,4.6,2.3,9.3,3.1,14.1
		c0.6,3.5,3.6,6,7.1,6h119.9c4,0,7.3-3.2,7.3-7.3c0-0.3,0-0.6-0.1-0.9c-0.7-5.2-1.6-10.4-2.9-15.5C322.9,51.4,320,49.1,316.7,49.1z"
		/>
	<path id="ray-3" class="st1" d="M319.6,95.7h-118c-4,0-7.2,3.1-7.5,7c-0.3,4.5-0.7,9-1.4,13.4c-0.7,4.1,2.1,8,6.3,8.6
		c0.4,0.1,0.8,0.1,1.2,0.1h117.3c3.5,0,6.6-2.5,7.4-5.9c1-5,1.8-10,2.4-15c0.4-4.1-2.6-7.8-6.8-8.2
		C320.1,95.8,319.8,95.8,319.6,95.7z"/>
	<path id="ray-4" class="st1" d="M306.1,143.9h-116c-2.8,0-5.4,1.7-6.5,4.3c-2.1,4.9-4.4,9.7-7.1,14.4c-1.9,3.4-0.8,7.6,2.6,9.6
		c1.1,0.6,2.3,0.9,3.5,0.9h114.5c2.3,0,4.5-1.2,5.8-3.1c3.5-5.1,6.6-10.4,9.4-15.9c1.8-3.4,0.5-7.7-3-9.4
		C308.4,144.1,307.3,143.8,306.1,143.9z"/>
</g>
</svg>
