<?xml version="1.0" encoding="utf-8"?>
<!-- Generator: Adobe Illustrator 22.1.0, SVG Export Plug-In . SVG Version: 6.00 Build 0)  -->
<svg version="1.1" id="Rear_Lights" xmlns="http://www.w3.org/2000/svg" xmlns:xlink="http://www.w3.org/1999/xlink" x="0px"
	 y="0px" viewBox="0 0 317.1 259.7" style="enable-background:new 0 0 317.1 259.7;" xml:space="preserve">
<style type="text/css">
	.st0{opacity:0.5;}
	.st1{fill:#FFFFFF;}
</style>
<title>Rear_Lights</title>
<g id="rearLights" class="st0">
	<path id="center" class="st1" d="M158.6,224.2c-52,0-94.1-42.1-94.1-94.1s42.1-94.1,94-94.1s94.1,42.1,94.1,94.1l0,0
		C252.6,182.1,210.5,224.2,158.6,224.2z M158.6,80.5c-27.4,0-49.7,22.2-49.7,49.6s22.2,49.7,49.7,49.7s49.6-22.2,49.6-49.7l0,0
		C208.2,102.7,186,80.5,158.6,80.5L158.6,80.5z"/>
	<path id="right" class="st1" d="M250,259.7l-25.6-36.3c51.5-36.3,63.9-107.4,27.6-159c-7.5-10.7-16.9-20-27.6-27.6L250,0.5
		c71.6,50.4,88.7,149.4,38.2,220.9C277.8,236.3,264.8,249.2,250,259.7z"/>
	<path id="left" class="st1" d="M67.2,259.7C-4.4,209.3-21.5,110.4,28.9,38.8C39.6,23.7,52.8,10.6,67.9,0l25.4,36.5
		c-51.7,36-64.5,107.1-28.5,158.8c7.6,10.9,17.1,20.5,28,28.1L67.2,259.7z"/>
</g>
</svg>
