<svg id="Suspension" xmlns="http://www.w3.org/2000/svg" viewBox="0 0 268.94 268.92">
  <title>Suspension</title>
  <path id="detail" d="M256.82,196.86l-28.59,27.51c4,3.09,7.42,5.34,10.37,8.09,4.06,3.78,3.84,8,0,11.89q-6.12,6.26-12.39,12.38c-4,3.89-8,3.63-11.92-.24q-22.95-22.94-45.88-45.9c-3.89-3.9-4-7.94-.11-11.91s7.87-8.05,11.92-11.94c4.63-4.43,8.26-4.44,12.85.12,2.59,2.57,4.77,5.57,9,10.62,2.7-4,4.55-6.65,6.29-9.35,4.32-6.7,9.93-6.71,16.64-3.86C235.14,188.55,245.44,192.38,256.82,196.86Z" transform="translate(-113.78 -42.25)"/>
  <path id="detail-2" data-name="detail" d="M234.59,150.14,224.82,161c-5.45-4.72-8.71-9.54-6.75-15.86,1.9-6.1,7.57-7.65,13.09-7.51A71.06,71.06,0,0,1,249,140.1c4.72,1.36,7.93.65,10.57-3.18,3.23-4.68,7.12-5.12,12.23-3,11.12,4.54,22.42,8.66,34.29,13.19l-8.71,9.46,8.78,1.49,9.38-10.87c5.39,4.54,8.8,9.29,7,15.61s-8,8.5-13.53,7.68a237.36,237.36,0,0,1-32-7.08c-12.38-3.6-24.43-8.3-36.68-12.37A26.31,26.31,0,0,0,234.59,150.14Z" transform="translate(-113.78 -42.25)"/>
  <path id="detail-3" data-name="detail" d="M208.88,175.77l-8.68,9.94c-5.53-4.46-8.67-9.21-6.95-15.57,1.6-6,6.94-7.75,12.25-7.67A77,77,0,0,1,224,164.82c4.63,1.23,8.05,1,10.64-3,3.41-5.24,7.73-4.95,12.83-2.92,11,4.36,22.07,8.47,33.72,12.92l-8.51,9.57,8.53,1.31c3.74-4.16,6.58-7.34,9.65-10.76,5.31,4.78,8.87,9.49,6.77,15.86s-8,7.63-13.78,7.57c-14.55-.14-27.74-5.65-41.1-10.73-11.18-4.25-22.72-7.55-34.1-11.28Z" transform="translate(-113.78 -42.25)"/>
  <path id="bottom" d="M166.09,217.2c-11.74,7.35-18.43,17.56-14.57,32.3a30.71,30.71,0,0,0-6.55-.7,31.21,31.21,0,1,0,30.44,24.45c15.32,4.34,25.07-3.05,32.38-14.33Q186.72,237.83,166.09,217.2ZM154.4,280a9.43,9.43,0,1,1-9.43-9.43A9.44,9.44,0,0,1,154.4,280Z" transform="translate(-113.78 -42.25)"/>
  <path id="top" d="M351.53,42.25a31.18,31.18,0,0,0-29.47,41.36,20.82,20.82,0,0,1-6.7,1.69c-2.89.31-6,2.24-8.23,4.32-8,7.56-15.78,15.4-23.42,23.34-2.68,2.77-5,3.62-9,2.62a87.59,87.59,0,0,0-19.79-2.64c-5.56-.09-11,2-12.34,8.41-1.28,6.15,2,10.58,7.17,15l9.15-11c1.63.22,4.31.19,6.71,1,13.47,4.52,26.74,9.71,40.36,13.74a164.07,164.07,0,0,0,28.41,5.57c5.37.6,11.16-1.41,12.91-7.64s-1.47-11.1-6.94-15.61l-9.49,10.86-9.61-1.59c5.59-5.34,10.34-9.39,14.46-14a15.77,15.77,0,0,0,4.05-8.34,18,18,0,0,1,1.67-6.41,31.18,31.18,0,1,0,10.12-60.68ZM342.1,73.44a9.43,9.43,0,1,1,9.43,9.43A9.44,9.44,0,0,1,342.1,73.44Z" transform="translate(-113.78 -42.25)"/>
</svg>
