<?xml version="1.0" encoding="utf-8"?>
<!-- Generator: Adobe Illustrator 22.1.0, SVG Export Plug-In . SVG Version: 6.00 Build 0)  -->
<svg version="1.1" id="Suspension" xmlns="http://www.w3.org/2000/svg" xmlns:xlink="http://www.w3.org/1999/xlink" x="0px" y="0px"
	 viewBox="0 0 268.9 268.9" style="enable-background:new 0 0 268.9 268.9;" xml:space="preserve">
<style type="text/css">
	.st0{opacity:0.51;fill:#FFFFFF;enable-background:new    ;}
</style>
<title>Suspension</title>
<path id="detail" class="st0" d="M143,154.6l-28.6,27.5c4,3.1,7.4,5.3,10.4,8.1c4.1,3.8,3.8,8,0,11.9c-4.1,4.2-8.2,8.3-12.4,12.4
	c-4,3.9-8,3.6-11.9-0.2c-15.3-15.3-30.6-30.6-45.9-45.9c-3.9-3.9-4-7.9-0.1-11.9s7.9-8.1,11.9-11.9c4.6-4.4,8.3-4.4,12.9,0.1
	c2.6,2.6,4.8,5.6,9,10.6c2.7-4,4.6-6.6,6.3-9.4c4.3-6.7,9.9-6.7,16.6-3.9C121.4,146.3,131.7,150.1,143,154.6z"/>
<path id="detail-2" class="st0" d="M120.8,107.9l-9.8,10.9c-5.4-4.7-8.7-9.5-6.8-15.9c1.9-6.1,7.6-7.6,13.1-7.5
	c6,0.1,12,0.9,17.8,2.5c4.7,1.4,7.9,0.6,10.6-3.2c3.2-4.7,7.1-5.1,12.2-3c11.1,4.5,22.4,8.7,34.3,13.2l-8.7,9.5l8.8,1.5l9.4-10.9
	c5.4,4.5,8.8,9.3,7,15.6s-8,8.5-13.5,7.7c-10.8-1.6-21.5-4-32-7.1c-12.4-3.6-24.4-8.3-36.7-12.4C124.7,108.3,122.8,108,120.8,107.9z
	"/>
<path id="detail-3" class="st0" d="M95.1,133.5l-8.7,9.9c-5.5-4.5-8.7-9.2-6.9-15.6c1.6-6,6.9-7.8,12.3-7.7c6.2,0,12.5,0.8,18.5,2.3
	c4.6,1.2,8.1,1,10.6-3c3.4-5.2,7.7-4.9,12.8-2.9c11,4.4,22.1,8.5,33.7,12.9l-8.5,9.6l8.5,1.3c3.7-4.2,6.6-7.3,9.6-10.8
	c5.3,4.8,8.9,9.5,6.8,15.9s-8,7.6-13.8,7.6c-14.5-0.1-27.7-5.6-41.1-10.7c-11.2-4.3-22.7-7.6-34.1-11.3L95.1,133.5z"/>
<path id="bottom" class="st0" d="M52.3,174.9c-11.7,7.4-18.4,17.6-14.6,32.3c-2.2-0.5-4.3-0.7-6.6-0.7C14,206.5,0,220.5,0,237.7
	s13.9,31.2,31.2,31.2s31.2-13.9,31.2-31.2c0-2.3-0.2-4.6-0.7-6.8c15.3,4.3,25.1-3,32.4-14.3C80,202.6,66.1,188.7,52.3,174.9z
	 M40.6,237.8c0,5.2-4.2,9.4-9.4,9.4s-9.4-4.2-9.4-9.4s4.2-9.4,9.4-9.4l0,0C36.4,228.3,40.6,232.5,40.6,237.8z"/>
<path id="top" class="st0" d="M237.8,0c-17.2,0-31.2,14-31.2,31.2c0,3.5,0.6,6.9,1.7,10.2c-2.1,0.9-4.4,1.5-6.7,1.7
	c-2.9,0.3-6,2.2-8.2,4.3c-8,7.6-15.8,15.4-23.4,23.3c-2.7,2.8-5,3.6-9,2.6c-6.5-1.6-13.1-2.5-19.8-2.6c-5.6-0.1-11,2-12.3,8.4
	c-1.3,6.2,2,10.6,7.2,15l9.2-11c1.6,0.2,4.3,0.2,6.7,1c13.5,4.5,26.7,9.7,40.4,13.7c9.3,2.7,18.8,4.6,28.4,5.6
	c5.4,0.6,11.2-1.4,12.9-7.6s-1.5-11.1-6.9-15.6L217.1,91l-9.6-1.6c5.6-5.3,10.3-9.4,14.5-14c2.2-2.3,3.6-5.2,4-8.3
	c0.2-2.2,0.7-4.4,1.7-6.4c16.3,5.6,34-3.1,39.6-19.4c5.6-16.3-3.1-34-19.4-39.6C244.6,0.6,241.2,0,237.8,0L237.8,0z M228.3,31.2
	c0-5.2,4.2-9.4,9.4-9.4s9.4,4.2,9.4,9.4s-4.2,9.4-9.4,9.4l0,0C232.5,40.6,228.3,36.4,228.3,31.2z"/>
</svg>
